# xmcd
#
# Track frame offsets:
#	150
#	12501
#	25680
#	39461
#	53153
#	65541
#	77800
#	91473
#	105769
#	117767
#	129792
#	142182
#	155390
#	169213
#	182029
#	196279
#	208611
#	222290
#	234941
#	249092
#	262088
#	275982
#	287937
#	302133
#
# Disc length: 4186 seconds
#
# Revision: 1
# Processed by: cddbd v1.5.1PL0 Copyright (c) Steve Scherf et al.
# Submitted via: audiograbber 1.82.02
#
DISCID=56105818
DTITLE=T-Bone Walker - Quadromania Disk 3 von 4
DYEAR=2001
DGENRE=Blues
TTITLE0=I'm In An Awful Mood
TTITLE1=It's A Lowdown Dirty Deal
TTITLE2=Don't Give Me The Runaround
TTITLE3=Hard Pain Blues
TTITLE4=I Know Your Wig Is Gone
TTITLE5=T-Bone Jumps Again
TTITLE6=Call It Stormy Monday
TTITLE7=She Had To Let Me Down
TTITLE8=She's My Old Time Use-To-Be
TTITLE9=Dream Girl Blues
TTITLE10=Midnight Blues
TTITLE11=Long Lost Lover Blues
TTITLE12=Triflin' Woman Blues
TTITLE13=Long Skirt Baby Blues
TTITLE14=Goodbye Blues
TTITLE15=Too Much Trouble Blues
TTITLE16=I'm Waiting For Your Call
TTITLE17=Hypin' Woman Blues
TTITLE18=So Blue Blues
TTITLE19=On Your Way Blues
TTITLE20=Natural Blues
TTITLE21=That's Better For Me
TTITLE22=First Love Blues
TTITLE23=Lonesome Woman Blues
EXTD=
EXTT0=
EXTT1=
EXTT2=
EXTT3=
EXTT4=
EXTT5=
EXTT6=
EXTT7=
EXTT8=
EXTT9=
EXTT10=
EXTT11=
EXTT12=
EXTT13=
EXTT14=
EXTT15=
EXTT16=
EXTT17=
EXTT18=
EXTT19=
EXTT20=
EXTT21=
EXTT22=
EXTT23=
PLAYORDER=
